<svg width="478" height="375" viewBox="0 0 478 375" fill="none" xmlns="http://www.w3.org/2000/svg">
<path d="M0 0H478V375H0V0Z" fill="#259645"/>
<rect x="115" y="127" width="250" height="60" rx="5" fill="white"/>
<path d="M135.316 158.896H133.132V165H128.82V146.128H135.316C137.407 146.128 139.096 146.716 140.384 147.892C141.691 149.068 142.344 150.561 142.344 152.372C142.344 154.444 141.663 156.049 140.3 157.188C138.956 158.327 137.295 158.896 135.316 158.896ZM134.812 149.572H133.132V155.48H134.56C136.837 155.48 137.976 154.444 137.976 152.372C137.976 150.505 136.921 149.572 134.812 149.572ZM162.489 155.508C162.489 158.401 161.649 160.744 159.969 162.536C158.308 164.309 156.087 165.196 153.305 165.196C150.505 165.196 148.275 164.309 146.613 162.536C144.952 160.763 144.121 158.42 144.121 155.508C144.121 152.615 144.952 150.281 146.613 148.508C148.293 146.716 150.524 145.82 153.305 145.82C156.105 145.82 158.336 146.707 159.997 148.48C161.659 150.253 162.489 152.596 162.489 155.508ZM149.973 151.308C149.152 152.335 148.741 153.735 148.741 155.508C148.741 157.281 149.152 158.691 149.973 159.736C150.795 160.763 151.905 161.276 153.305 161.276C154.705 161.276 155.816 160.763 156.637 159.736C157.459 158.691 157.869 157.281 157.869 155.508C157.869 153.735 157.459 152.335 156.637 151.308C155.816 150.263 154.705 149.74 153.305 149.74C151.905 149.74 150.795 150.263 149.973 151.308ZM172.103 149.628H169.975V154.948H172.019C173.885 154.948 174.819 154.033 174.819 152.204C174.819 151.401 174.576 150.776 174.091 150.328C173.605 149.861 172.943 149.628 172.103 149.628ZM169.975 165H165.663V146.128H172.187C174.296 146.128 175.985 146.688 177.255 147.808C178.543 148.928 179.187 150.384 179.187 152.176C179.187 154.864 178.039 156.721 175.743 157.748L180.531 165H175.379L171.291 158.448H169.975V165ZM195.658 149.6H191.066V165H186.726V149.6H182.106V146.128H195.658V149.6ZM204.252 156.992L204.056 157.664H208.592L208.396 156.992C207.855 155.163 207.407 153.604 207.052 152.316C206.716 151.028 206.511 150.197 206.436 149.824L206.324 149.264C206.175 150.291 205.484 152.867 204.252 156.992ZM201.872 165H197.364L203.664 146.128H209.096L215.396 165H210.776L209.628 161.136H203.02L201.872 165ZM229.38 165H218.096V146.128H222.408V161.22H229.38V165ZM253.16 164.16C252.021 164.869 250.379 165.224 248.232 165.224C245.469 165.224 243.155 164.337 241.288 162.564C239.44 160.772 238.516 158.457 238.516 155.62C238.516 152.745 239.412 150.403 241.204 148.592C243.015 146.781 245.367 145.876 248.26 145.876C250.388 145.876 252.021 146.231 253.16 146.94V151.084C251.76 150.225 250.201 149.796 248.484 149.796C246.972 149.796 245.703 150.328 244.676 151.392C243.649 152.437 243.136 153.847 243.136 155.62C243.136 157.356 243.649 158.737 244.676 159.764C245.703 160.772 247.028 161.276 248.652 161.276C250.407 161.276 251.909 160.828 253.16 159.932V164.16ZM272.18 165H267.84V157.468H260.924V165H256.612V146.128H260.924V153.8H267.84V146.128H272.18V165ZM282.471 149.628H280.343V154.948H282.387C284.254 154.948 285.187 154.033 285.187 152.204C285.187 151.401 284.945 150.776 284.459 150.328C283.974 149.861 283.311 149.628 282.471 149.628ZM280.343 165H276.031V146.128H282.555C284.665 146.128 286.354 146.688 287.623 147.808C288.911 148.928 289.555 150.384 289.555 152.176C289.555 154.864 288.407 156.721 286.111 157.748L290.899 165H285.747L281.659 158.448H280.343V165ZM311.123 155.508C311.123 158.401 310.283 160.744 308.603 162.536C306.941 164.309 304.72 165.196 301.939 165.196C299.139 165.196 296.908 164.309 295.247 162.536C293.585 160.763 292.755 158.42 292.755 155.508C292.755 152.615 293.585 150.281 295.247 148.508C296.927 146.716 299.157 145.82 301.939 145.82C304.739 145.82 306.969 146.707 308.631 148.48C310.292 150.253 311.123 152.596 311.123 155.508ZM298.607 151.308C297.785 152.335 297.375 153.735 297.375 155.508C297.375 157.281 297.785 158.691 298.607 159.736C299.428 160.763 300.539 161.276 301.939 161.276C303.339 161.276 304.449 160.763 305.271 159.736C306.092 158.691 306.503 157.281 306.503 155.508C306.503 153.735 306.092 152.335 305.271 151.308C304.449 150.263 303.339 149.74 301.939 149.74C300.539 149.74 299.428 150.263 298.607 151.308ZM318.188 165H313.876L315.5 146.128H320.232L322.864 152.96C323.312 154.099 323.694 155.144 324.012 156.096C324.329 157.048 324.534 157.72 324.628 158.112L324.768 158.672C325.066 157.44 325.72 155.536 326.728 152.96L329.388 146.128H334.12L336.08 165H331.768L331.068 157.692L330.704 152.176C330.218 153.576 329.546 155.415 328.688 157.692L326.028 164.804H323.48L320.848 157.692C320.418 156.535 320.054 155.499 319.756 154.584C319.457 153.669 319.261 153.035 319.168 152.68L319.028 152.176C319.028 153.501 318.944 155.34 318.776 157.692L318.188 165ZM351.244 165H339.512V146.128H351.132V149.572H343.852V153.856H350.348V157.272H343.852V161.556H351.244V165Z" fill="#878787"/>
<rect x="127" y="167.116" width="56.6225" height="4.88372" fill="#259645"/>
<rect x="183.622" y="167.116" width="56.6225" height="4.88372" fill="#E23A2E"/>
<rect x="240.245" y="167.116" width="56.6225" height="4.88372" fill="#FCC31E"/>
<rect x="297.378" y="167.116" width="56.6225" height="4.88372" fill="#1A73E8"/>
</svg>
